<svg width="341" height="63" viewBox="0 0 341 63" fill="none" xmlns="http://www.w3.org/2000/svg">
<path d="M336.086 27.2174H333.415V13.77H326.701V7.05636H326.359V6.71362H319.645V0H298.164V7.05636H293.88V0H171.495V13.4172H166.455V7.05636H166.103V6.71362H159.399V0H137.948V20.161H132.586V13.4172H90.9743V20.161H88.8474V13.4172H41.954V7.05636H34.8979V0H13.4168V6.71362H6.71345V20.161H0V34.8987H6.71345V48.326H13.4168V55.0295H13.7696V55.3823H20.473V62.0859H41.954V55.0295H47.5788V62.0859H69.0599V41.9248H75.7733V35.2818H84.271V48.3864H90.9743V55.09H91.3272V55.4428H98.0305V62.1463H139.642V55.09H145.005V62.1463H166.486V41.9853H171.526V55.09H178.582V62.1463H221.262V41.9853H248.095V27.2174H241.039V21.8344H259.012V55.0295H266.068V62.0859H287.549V21.8344H300.966V14.778H304.908V40.2616H298.194V55.0295H305.25V62.0859H326.701V55.3823H333.415V41.9551H340.118V27.2174H336.086ZM30.8658 10.7458H24.1926V24.1932H17.4489V30.8968H24.1926V44.2938H30.896V50.9973H17.4489V44.2938H10.7456V30.8665H4.0321V24.1932H10.7456V10.7458H17.4489V4.0322H30.8658V10.7458ZM40.5226 47.3179H35.2809V21.8344H40.5226V47.3179ZM84.8153 24.1932H64.6548V30.8968H57.9716V51.0578H44.5547V17.4494H57.9716V24.1932H64.685V17.4494H84.8456L84.8153 24.1932ZM135.267 37.6104H101.72V44.324H128.554V51.0275H95.0065V44.2938H88.3031V24.1932H95.0065V17.4494H128.554V24.1932H135.267V37.6104ZM188.944 51.0275H175.528V37.5801H168.814V30.8665H162.101V24.1932H155.397V50.9973H141.98V4.0322H155.397V10.7458H162.101V17.4494H168.814V24.1932H175.528V4.0322H188.944V51.0275ZM243.69 10.7761H210.143V24.1932H236.977V30.8968H210.143V51.0578H196.726V4.0322H243.69V10.7761ZM289.848 10.7761H276.431V50.9973H263.014V10.7458H249.597V4.0322H289.848V10.7761ZM329.03 30.9371H322.326V44.2938H315.613V50.9973H302.196V44.2938H308.91V30.8665H315.613V24.1932H308.91V10.7458H302.196V4.0322H315.613V10.7458H322.326V24.1932H329.03V30.9371Z" fill="black"/>
</svg>
