<?xml version="1.0" encoding="UTF-8"?>
<svg xmlns="http://www.w3.org/2000/svg" xmlns:xlink="http://www.w3.org/1999/xlink" width="50px" height="50px" viewBox="0 0 150 120" version="1.1">
<g id="surface1">
<path style=" stroke:none;fill-rule:nonzero;fill:rgb(100%,100%,100%);fill-opacity:1;" d="M 123.46875 28.660156 C 125.03125 58.472656 109.859375 86.664062 84.136719 101.746094 C 58.421875 116.824219 26.453125 116.273438 1.269531 100.304688 C 15.542969 101.246094 29.664062 96.875 40.914062 88.027344 C 29.976562 86.722656 20.753906 79.234375 17.207031 68.78125 C 21.441406 69.464844 25.769531 69.183594 29.878906 67.964844 C 16.777344 65.492188 7.117188 54.285156 6.582031 40.945312 C 10.214844 42.40625 14.113281 43.097656 18.023438 42.988281 C 6.757812 34.253906 3.621094 18.546875 10.667969 6.136719 C 24.851562 23.6875 45.789062 34.398438 68.292969 35.617188 C 64.441406 23.070312 70 9.546875 81.5625 3.359375 C 93.117188 -2.832031 107.429688 0.0546875 115.707031 10.234375 C 121.96875 9.109375 127.945312 6.746094 133.277344 3.277344 C 131.242188 9.921875 126.695312 15.503906 120.609375 18.832031 C 126.144531 18.273438 131.535156 16.75 136.546875 14.332031 C 134.148438 20.585938 129.472656 25.703125 123.46875 28.660156 Z M 123.46875 28.660156 "/>
</g>
</svg>
